<?xml version="1.0" standalone="no"?>
<svg version="1.0" xmlns="http://www.w3.org/2000/svg"
 width="40px" height="40px" viewBox="0 0 680.309848 507.711809"
 preserveAspectRatio="xMidYMid meet">

<g transform="translate(-172.690152,765.857176) scale(0.100000,-0.100000)"
fill="#000000" stroke="none">
<path d="M6310 7640 c-47 -10 -308 -73 -580 -139 -272 -67 -598 -146 -725
-177 -594 -145 -905 -224 -957 -244 -195 -73 -354 -249 -429 -475 -24 -70 -24
-70 -29 -739 l-5 -668 -85 -25 c-193 -55 -371 -163 -525 -318 -187 -187 -298
-384 -363 -644 -23 -95 -26 -125 -27 -296 0 -204 10 -273 61 -432 197 -607
801 -981 1433 -887 390 58 732 283 961 633 l15 23 80 -47 c103 -61 249 -120
367 -147 127 -30 419 -32 548 -5 273 59 500 179 697 370 203 197 331 425 396
702 21 89 21 108 25 1505 3 1574 7 1477 -64 1627 -69 145 -178 254 -329 328
-151 74 -297 92 -465 55z m146 -704 l34 -34 0 -1298 c0 -1428 2 -1368 -62
-1507 -188 -407 -717 -505 -1034 -192 -80 79 -131 164 -165 275 -19 60 -23 97
-23 185 2 186 61 323 198 453 84 80 179 131 291 158 95 22 253 15 353 -17 l73
-22 27 20 c53 39 52 13 52 820 l0 751 -25 30 c-14 17 -38 33 -53 37 -18 4
-217 -41 -592 -133 -311 -77 -637 -157 -724 -178 -173 -43 -206 -57 -236 -106
-20 -32 -20 -53 -20 -1183 0 -1290 3 -1223 -74 -1372 -84 -162 -215 -275 -379
-329 -71 -24 -99 -28 -202 -28 -104 0 -130 3 -195 26 -112 39 -167 74 -251
157 -352 351 -187 951 296 1076 92 24 236 20 336 -9 91 -26 109 -24 149 19
l25 27 5 906 c5 885 5 908 25 940 11 18 34 42 52 53 20 12 411 114 1000 260
532 131 973 241 978 243 6 3 32 5 59 5 42 1 52 -3 82 -33z"/>
<path d="M3057 7489 c-106 -17 -196 -83 -250 -184 -18 -33 -22 -57 -22 -140 0
-86 3 -107 24 -149 33 -66 91 -122 160 -155 47 -22 70 -26 141 -26 73 0 93 4
142 28 197 97 250 358 106 521 -22 26 -62 58 -87 71 -42 21 -66 27 -146 39
-11 2 -42 0 -68 -5z"/>
<path d="M7654 6702 c-122 -42 -193 -153 -181 -283 5 -63 23 -102 69 -154 53
-61 100 -80 198 -80 75 0 91 3 132 27 158 93 186 301 58 429 -75 75 -173 96
-276 61z"/>
<path d="M2210 6598 c-26 -13 -53 -37 -64 -57 -25 -43 -26 -114 -3 -158 19
-36 9 -28 425 -329 449 -325 416 -304 476 -304 94 0 156 62 156 155 0 64 -24
104 -92 152 -114 83 -513 373 -633 462 -110 81 -134 95 -174 98 -34 3 -57 -2
-91 -19z"/>
<path d="M8065 5791 c-530 -182 -531 -182 -549 -234 -25 -71 40 -153 114 -145
33 4 663 203 743 235 70 28 92 126 39 176 -25 24 -78 47 -107 47 -5 0 -113
-36 -240 -79z"/>
<path d="M1800 5738 c-54 -37 -74 -72 -73 -128 1 -54 24 -102 63 -132 16 -11
112 -37 260 -68 129 -28 359 -78 510 -111 179 -40 288 -59 312 -56 46 6 93 39
114 79 21 40 15 125 -12 161 -38 53 -41 54 -644 184 -91 19 -221 48 -289 64
-150 35 -197 37 -241 7z"/>
<path d="M7623 5211 c-66 -41 -63 -150 4 -184 16 -8 87 -25 158 -37 72 -12
236 -42 365 -66 260 -49 279 -50 319 -29 28 14 61 68 61 100 0 32 -33 86 -61
101 -16 8 -183 39 -372 69 -457 72 -435 70 -474 46z"/>
<path d="M7522 4824 c-65 -33 -83 -120 -34 -166 37 -36 607 -427 639 -439 36
-13 86 5 118 42 30 36 34 102 9 137 -25 36 -630 433 -667 438 -19 3 -46 -3
-65 -12z"/>
<path d="M2110 4648 c-141 -40 -193 -206 -97 -315 113 -129 317 -77 347 89 19
99 -47 202 -142 226 -54 14 -61 14 -108 0z"/>
<path d="M7194 3380 c-75 -30 -137 -89 -176 -168 -29 -59 -33 -75 -32 -147 1
-104 27 -166 98 -233 164 -156 433 -107 533 96 24 49 28 69 28 142 0 71 -4 94
-27 142 -31 66 -91 128 -156 160 -66 32 -196 36 -268 8z"/>
</g>
</svg>
