<?xml version="1.0" encoding="UTF-8" standalone="no"?>
<!DOCTYPE svg PUBLIC "-//W3C//DTD SVG 1.1//EN" "http://www.w3.org/Graphics/SVG/1.1/DTD/svg11.dtd">
<svg xmlns="http://www.w3.org/2000/svg" xmlns:xlink="http://www.w3.org/1999/xlink" version="1.1" width="40px" height="40px" viewBox="213 40 791 605" xml:space="preserve">
<desc>Created with Fabric.js 5.3.0</desc>
<defs>
</defs>
<g transform="matrix(0.11 0 0 -0.11 581.26 342.34)">
<path style="stroke: rgb(255,255,255); fill: rgb(255,255,255); " vector-effect="non-scaling-stroke" transform=" translate(-4877.16, -5120.11)" d="M 6310 7640 C 6263 7630 6002 7567 5730 7501 C 5458 7434 5132 7355 5005 7324 C 4411 7179 4100 7100 4048 7080 C 3853 7007 3694 6831 3619 6605 C 3595 6535 3595 6535 3590 5866 L 3585 5198 L 3500 5173 C 3307 5118 3129 5010 2975 4855 C 2788 4668 2677 4471 2612 4211 C 2589 4116 2586 4086 2585 3915 C 2585 3711 2595 3642 2646 3483 C 2843 2876 3447 2502 4079 2596 C 4469 2654 4811 2879 5040 3229 L 5055 3252 L 5135 3205 C 5238 3144 5384 3085 5502 3058 C 5629 3028 5921 3026 6050 3053 C 6323 3112 6550 3232 6747 3423 C 6950 3620 7078 3848 7143 4125 C 7164 4214 7164 4233 7168 5630 C 7171 7204 7175 7107 7104 7257 C 7035 7402 6926 7511 6775 7585 C 6624 7659 6478 7677 6310 7640 z M 6456 6936 L 6490 6902 L 6490 5604 C 6490 4176 6492 4236 6428 4097 C 6240 3690 5711 3592 5394 3905 C 5314 3984 5263 4069 5229 4180 C 5210 4240 5206 4277 5206 4365 C 5208 4551 5267 4688 5404 4818 C 5488 4898 5583 4949 5695 4976 C 5790 4998 5948 4991 6048 4959 L 6121 4937 L 6148 4957 C 6201 4996 6200 4970 6200 5777 L 6200 6528 L 6175 6558 C 6161 6575 6137 6591 6122 6595 C 6104 6599 5905 6554 5530 6462 C 5219 6385 4893 6305 4806 6284 C 4633 6241 4600 6227 4570 6178 C 4550 6146 4550 6125 4550 4995 C 4550 3705 4553 3772 4476 3623 C 4392 3461 4261 3348 4097 3294 C 4026 3270 3998 3266 3895 3266 C 3791 3266 3765 3269 3700 3292 C 3588 3331 3533 3366 3449 3449 C 3097 3800 3262 4400 3745 4525 C 3837 4549 3981 4545 4081 4516 C 4172 4490 4190 4492 4230 4535 L 4255 4562 L 4260 5468 C 4265 6353 4265 6376 4285 6408 C 4296 6426 4319 6450 4337 6461 C 4357 6473 4748 6575 5337 6721 C 5869 6852 6310 6962 6315 6964 C 6321 6967 6347 6969 6374 6969 C 6416 6970 6426 6966 6456 6936 z" stroke-linecap="round"/>
</g>
<g transform="matrix(0.11 0 0 -0.11 391.06 121.95)">
<path style="fill: rgb(255,255,255); " vector-effect="non-scaling-stroke" transform=" translate(-3112.37, -7164.88)" d="M 3057 7489 C 2951 7472 2861 7406 2807 7305 C 2789 7272 2785 7248 2785 7165 C 2785 7079 2788 7058 2809 7016 C 2842 6950 2900 6894 2969 6861 C 3016 6839 3039 6835 3110 6835 C 3183 6835 3203 6839 3252 6863 C 3449 6960 3502 7221 3358 7384 C 3336 7410 3296 7442 3271 7455 C 3229 7476 3205 7482 3125 7494 C 3114 7496 3083 7494 3057 7489 z" stroke-linecap="round"/>
</g>
<g transform="matrix(0.11 0 0 -0.11 889.94 198.82)">
<path style="fill: rgb(255,255,255); " vector-effect="non-scaling-stroke" transform=" translate(-7741.17, -6451.73)" d="M 7654 6702 C 7532 6660 7461 6549 7473 6419 C 7478 6356 7496 6317 7542 6265 C 7595 6204 7642 6185 7740 6185 C 7815 6185 7831 6188 7872 6212 C 8030 6305 8058 6513 7930 6641 C 7855 6716 7757 6737 7654 6702 z" stroke-linecap="round"/>
</g>
<g transform="matrix(0.11 0 0 -0.11 342.65 227.7)">
<path style="fill: rgb(255,255,255); " vector-effect="non-scaling-stroke" transform=" translate(-2663.23, -6183.77)" d="M 2210 6598 C 2184 6585 2157 6561 2146 6541 C 2121 6498 2120 6427 2143 6383 C 2162 6347 2152 6355 2568 6054 C 3017 5729 2984 5750 3044 5750 C 3138 5750 3200 5812 3200 5905 C 3200 5969 3176 6009 3108 6057 C 2994 6140 2595 6430 2475 6519 C 2365 6600 2341 6614 2301 6617 C 2267 6620 2244 6615 2210 6598 z" stroke-linecap="round"/>
</g>
<g transform="matrix(0.11 0 0 -0.11 915.25 286.23)">
<path style="fill: rgb(255,255,255); " vector-effect="non-scaling-stroke" transform=" translate(-7975.98, -5640.73)" d="M 8065 5791 C 7535 5609 7534 5609 7516 5557 C 7491 5486 7556 5404 7630 5412 C 7663 5416 8293 5615 8373 5647 C 8443 5675 8465 5773 8412 5823 C 8387 5847 8334 5870 8305 5870 C 8300 5870 8192 5834 8065 5791 z" stroke-linecap="round"/>
</g>
<g transform="matrix(0.11 0 0 -0.11 310.28 301.3)">
<path style="fill: rgb(255,255,255); " vector-effect="non-scaling-stroke" transform=" translate(-2362.8, -5500.84)" d="M 1800 5738 C 1746 5701 1726 5666 1727 5610 C 1728 5556 1751 5508 1790 5478 C 1806 5467 1902 5441 2050 5410 C 2179 5382 2409 5332 2560 5299 C 2739 5259 2848 5240 2872 5243 C 2918 5249 2965 5282 2986 5322 C 3007 5362 3001 5447 2974 5483 C 2936 5536 2933 5537 2330 5667 C 2239 5686 2109 5715 2041 5731 C 1891 5766 1844 5768 1800 5738 z" stroke-linecap="round"/>
</g>
<g transform="matrix(0.11 0 0 -0.11 923.5 349.47)">
<path style="fill: rgb(255,255,255); " vector-effect="non-scaling-stroke" transform=" translate(-8052.55, -5053.99)" d="M 7623 5211 C 7557 5170 7560 5061 7627 5027 C 7643 5019 7714 5002 7785 4990 C 7857 4978 8021 4948 8150 4924 C 8410 4875 8429 4874 8469 4895 C 8497 4909 8530 4963 8530 4995 C 8530 5027 8497 5081 8469 5096 C 8453 5104 8286 5135 8097 5165 C 7640 5237 7662 5235 7623 5211 z" stroke-linecap="round"/>
</g>
<g transform="matrix(0.11 0 0 -0.11 903.32 406.4)">
<path style="fill: rgb(255,255,255); " vector-effect="non-scaling-stroke" transform=" translate(-7865.23, -4525.79)" d="M 7522 4824 C 7457 4791 7439 4704 7488 4658 C 7525 4622 8095 4231 8127 4219 C 8163 4206 8213 4224 8245 4261 C 8275 4297 8279 4363 8254 4398 C 8229 4434 7624 4831 7587 4836 C 7568 4839 7541 4833 7522 4824 z" stroke-linecap="round"/>
</g>
<g transform="matrix(0.11 0 0 -0.11 288.81 413.53)">
<path style="fill: rgb(255,255,255); " vector-effect="non-scaling-stroke" transform=" translate(-2163.66, -4459.58)" d="M 2110 4648 C 1969 4608 1917 4442 2013 4333 C 2126 4204 2330 4256 2360 4422 C 2379 4521 2313 4624 2218 4648 C 2164 4662 2157 4662 2110 4648 z" stroke-linecap="round"/>
</g>
<g transform="matrix(0.11 0 0 -0.11 844.06 563.37)">
<path style="fill: rgb(255,255,255); " vector-effect="non-scaling-stroke" transform=" translate(-7315.43, -3069.33)" d="M 7194 3380 C 7119 3350 7057 3291 7018 3212 C 6989 3153 6985 3137 6986 3065 C 6987 2961 7013 2899 7084 2832 C 7248 2676 7517 2725 7617 2928 C 7641 2977 7645 2997 7645 3070 C 7645 3141 7641 3164 7618 3212 C 7587 3278 7527 3340 7462 3372 C 7396 3404 7266 3408 7194 3380 z" stroke-linecap="round"/>
</g>
</svg>